<svg xmlns="http://www.w3.org/2000/svg" viewBox="0 0 2000 1000" preserveAspectRatio="xMidYMid slice">
  <rect width="2000" height="1000" fill="#000000"/>
  
  <!-- North America -->
  <path fill="#ffffff" d="M165,95 L240,50 L380,45 L480,70 L540,110 L520,150 L450,140 L380,155 L300,145 L220,160 L150,150 Z"/>
  <path fill="#ffffff" d="M150,160 L280,165 L400,155 L500,165 L540,150 L580,180 L560,230 L500,280 L430,320 L350,340 L280,330 L220,300 L180,260 L150,210 Z"/>
  <path fill="#ffffff" d="M80,90 L140,60 L180,80 L170,120 L120,135 L70,115 Z"/>
  <path fill="#ffffff" d="M220,340 L320,350 L380,370 L400,420 L370,480 L310,510 L260,490 L240,440 L230,390 Z"/>
  
  <!-- Greenland -->
  <path fill="#ffffff" d="M580,30 L680,15 L760,40 L780,100 L750,160 L680,150 L610,120 L590,70 Z"/>
  
  <!-- Central America & Caribbean -->
  <path fill="#ffffff" d="M310,510 L370,530 L400,580 L380,640 L340,660 L300,640 L290,590 Z"/>
  <path fill="#ffffff" d="M380,430 L440,415 L470,435 L450,460 L400,465 Z"/>
  
  <!-- South America -->
  <path fill="#ffffff" d="M380,650 L450,630 L490,680 L510,760 L490,850 L440,920 L370,940 L320,910 L300,850 L320,770 L340,700 Z"/>
  <path fill="#ffffff" d="M290,640 L340,660 L350,720 L330,800 L300,860 L260,880 L240,830 L250,760 L270,700 Z"/>
  
  <!-- Europe -->
  <path fill="#ffffff" d="M850,120 L890,100 L910,120 L900,160 L870,175 L845,155 Z"/>
  <path fill="#ffffff" d="M820,130 L850,120 L855,150 L835,170 L815,160 Z"/>
  <path fill="#ffffff" d="M890,170 L940,160 L970,195 L955,240 L910,250 L880,220 Z"/>
  <path fill="#ffffff" d="M850,220 L900,210 L920,250 L905,295 L855,305 L830,270 Z"/>
  <path fill="#ffffff" d="M820,240 L850,235 L860,280 L845,310 L815,300 Z"/>
  <path fill="#ffffff" d="M940,145 L1000,135 L1030,170 L1020,210 L975,220 L938,195 Z"/>
  <path fill="#ffffff" d="M1000,140 L1070,130 L1100,165 L1085,210 L1035,215 L1000,185 Z"/>
  <path fill="#ffffff" d="M950,230 L990,220 L1015,255 L1000,310 L960,330 L935,295 Z"/>
  <path fill="#ffffff" d="M940,60 L1010,40 L1050,75 L1035,120 L980,135 L935,105 Z"/>
  <path fill="#ffffff" d="M1050,50 L1110,35 L1145,70 L1130,115 L1080,125 L1048,95 Z"/>
  <path fill="#ffffff" d="M1100,160 L1180,150 L1220,185 L1200,235 L1140,250 L1095,215 Z"/>
  <path fill="#ffffff" d="M1020,265 L1070,255 L1095,290 L1080,335 L1035,345 L1010,310 Z"/>
  <path fill="#ffffff" d="M1080,250 L1160,235 L1200,270 L1185,320 L1130,335 L1085,300 Z"/>
  
  <!-- Russia -->
  <path fill="#ffffff" d="M1120,75 L1320,55 L1550,60 L1780,85 L1880,130 L1850,200 L1720,230 L1520,220 L1300,210 L1180,195 L1130,150 Z"/>
  
  <!-- Africa -->
  <path fill="#ffffff" d="M840,300 L900,285 L935,325 L920,380 L870,400 L830,370 Z"/>
  <path fill="#ffffff" d="M910,310 L990,290 L1040,340 L1030,420 L970,450 L910,430 L900,370 Z"/>
  <path fill="#ffffff" d="M1020,320 L1110,300 L1150,355 L1140,430 L1080,465 L1025,440 Z"/>
  <path fill="#ffffff" d="M1110,315 L1190,295 L1230,350 L1220,420 L1165,455 L1115,425 Z"/>
  <path fill="#ffffff" d="M1150,440 L1220,420 L1260,480 L1245,550 L1185,580 L1140,545 Z"/>
  <path fill="#ffffff" d="M1230,500 L1300,475 L1340,535 L1320,610 L1260,640 L1220,600 Z"/>
  <path fill="#ffffff" d="M1290,520 L1360,495 L1400,560 L1380,640 L1320,675 L1280,635 Z"/>
  <path fill="#ffffff" d="M1260,620 L1330,600 L1365,665 L1345,740 L1290,770 L1250,730 Z"/>
  <path fill="#ffffff" d="M1240,710 L1310,690 L1345,760 L1325,840 L1270,870 L1230,825 Z"/>
  <path fill="#ffffff" d="M1080,540 L1160,515 L1200,580 L1185,660 L1125,695 L1075,655 Z"/>
  <path fill="#ffffff" d="M940,470 L1020,445 L1065,515 L1050,600 L990,640 L935,600 L930,530 Z"/>
  <path fill="#ffffff" d="M870,400 L950,375 L995,445 L980,530 L920,570 L865,530 L860,460 Z"/>
  <path fill="#ffffff" d="M1050,600 L1130,575 L1170,645 L1155,730 L1095,770 L1040,730 Z"/>
  <path fill="#ffffff" d="M1100,750 L1180,725 L1220,800 L1200,880 L1140,915 L1090,875 Z"/>
  <path fill="#ffffff" d="M1350,720 L1420,695 L1460,765 L1440,850 L1380,890 L1330,845 Z"/>
  
  <!-- Middle East -->
  <path fill="#ffffff" d="M1200,320 L1280,295 L1330,350 L1315,420 L1255,455 L1200,420 Z"/>
  <path fill="#ffffff" d="M1260,270 L1360,245 L1410,305 L1395,385 L1330,425 L1270,390 Z"/>
  <path fill="#ffffff" d="M1220,290 L1280,270 L1310,320 L1295,380 L1245,405 L1215,365 Z"/>
  
  <!-- Central Asia -->
  <path fill="#ffffff" d="M1340,180 L1500,155 L1570,200 L1545,265 L1450,290 L1370,260 Z"/>
  <path fill="#ffffff" d="M1390,280 L1480,255 L1530,315 L1510,385 L1445,420 L1385,385 Z"/>
  <path fill="#ffffff" d="M1450,400 L1540,375 L1590,445 L1570,535 L1505,580 L1440,535 Z"/>
  
  <!-- India -->
  <path fill="#ffffff" d="M1470,420 L1570,390 L1630,470 L1610,590 L1540,660 L1460,630 L1430,540 Z"/>
  <path fill="#ffffff" d="M1550,650 L1600,635 L1625,690 L1610,750 L1565,765 L1545,720 Z"/>
  
  <!-- China -->
  <path fill="#ffffff" d="M1550,230 L1720,205 L1820,260 L1800,370 L1700,430 L1590,420 L1540,350 Z"/>
  <path fill="#ffffff" d="M1580,180 L1720,160 L1780,210 L1760,280 L1680,310 L1600,285 Z"/>
  
  <!-- Japan -->
  <path fill="#ffffff" d="M1840,260 L1880,235 L1905,280 L1895,350 L1860,385 L1830,355 Z"/>
  <path fill="#ffffff" d="M1860,370 L1895,350 L1915,400 L1900,460 L1865,480 L1850,440 Z"/>
  
  <!-- Korea -->
  <path fill="#ffffff" d="M1800,290 L1840,270 L1860,315 L1845,370 L1810,385 L1795,345 Z"/>
  
  <!-- Southeast Asia -->
  <path fill="#ffffff" d="M1640,460 L1710,435 L1755,505 L1735,590 L1680,630 L1630,590 Z"/>
  <path fill="#ffffff" d="M1720,520 L1790,495 L1835,570 L1815,660 L1755,700 L1705,660 Z"/>
  <path fill="#ffffff" d="M1610,490 L1670,465 L1705,535 L1685,615 L1630,650 L1595,610 Z"/>
  <path fill="#ffffff" d="M1680,640 L1760,610 L1810,690 L1790,780 L1725,820 L1670,780 Z"/>
  <path fill="#ffffff" d="M1700,750 L1820,715 L1890,800 L1865,900 L1780,945 L1690,905 Z"/>
  <path fill="#ffffff" d="M1820,500 L1890,470 L1940,555 L1915,660 L1850,705 L1800,660 Z"/>
  
  <!-- Australia -->
  <path fill="#ffffff" d="M1680,820 L1840,780 L1940,840 L1960,960 L1880,1020 L1760,1000 L1680,940 Z"/>
  
  <!-- New Zealand -->
  <path fill="#ffffff" d="M1970,900 L2000,880 L2020,930 L2000,990 L1965,1000 L1955,955 Z"/>
  
  <!-- Papua New Guinea -->
  <path fill="#ffffff" d="M1890,720 L1960,690 L2000,760 L1980,830 L1920,860 L1880,815 Z"/>
</svg>
